<svg xmlns="http://www.w3.org/2000/svg" xmlns:xlink="http://www.w3.org/1999/xlink" width="1080" zoomAndPan="magnify" viewBox="0 0 810 809.999993" height="1080" preserveAspectRatio="xMidYMid meet" version="1.0"><defs><clipPath id="8f0adb53d3"><path d="M 107.109375 8 L 668.109375 8 L 668.109375 522 L 107.109375 522 Z M 107.109375 8 " clip-rule="nonzero"/></clipPath><clipPath id="b78381cb9c"><path d="M 162.40625 177.929688 L 242.4375 177.929688 L 242.4375 299.429688 L 162.40625 299.429688 Z M 162.40625 177.929688 " clip-rule="nonzero"/></clipPath><clipPath id="84fd250670"><path d="M 0.40625 0.929688 L 80.4375 0.929688 L 80.4375 122.429688 L 0.40625 122.429688 Z M 0.40625 0.929688 " clip-rule="nonzero"/></clipPath><clipPath id="f76369d586"><rect x="0" width="81" y="0" height="123"/></clipPath></defs><g clip-path="url(#8f0adb53d3)"><path fill="#000100" d="M 654.898438 236.199219 C 652.71875 224.5625 658.597656 218.945312 658.457031 207.03125 C 658.320312 195.121094 646.132812 192.238281 642.679688 184.847656 C 639.226562 177.460938 641.726562 164.4375 638.027344 154.296875 C 634.328125 144.15625 620.777344 141.839844 612.160156 131.972656 C 603.542969 122.105469 606.023438 106.632812 598.46875 97.605469 C 590.910156 88.578125 577.238281 90.894531 570.523438 82.53125 C 563.808594 74.171875 563.675781 67.195312 554.5 59.246094 C 545.320312 51.292969 535.320312 56.789062 521.355469 50.078125 C 507.390625 43.363281 501.195312 29.917969 491.21875 25.289062 C 481.246094 20.664062 470.007812 26.359375 459.171875 27.234375 C 448.339844 28.113281 430.675781 13.652344 430.675781 13.652344 C 430.675781 13.652344 419.167969 4.886719 408.488281 9.539062 C 401.808594 12.34375 394.847656 13.9375 387.609375 14.316406 C 380.371094 13.9375 373.414062 12.34375 366.730469 9.539062 C 356.054688 4.878906 344.542969 13.652344 344.542969 13.652344 C 344.542969 13.652344 326.871094 28.023438 316.054688 27.234375 C 305.238281 26.445312 294.011719 20.664062 284 25.324219 C 273.988281 29.988281 267.84375 43.363281 253.863281 50.078125 C 239.882812 56.789062 229.898438 51.3125 220.722656 59.246094 C 211.542969 67.175781 211.402344 74.144531 204.699219 82.53125 C 197.992188 90.917969 184.292969 88.5625 176.753906 97.605469 C 169.214844 106.652344 171.675781 122.148438 163.0625 131.972656 C 154.445312 141.796875 140.867188 144.171875 137.167969 154.324219 C 133.46875 164.472656 135.929688 177.46875 132.511719 184.875 C 129.09375 192.28125 116.902344 195.140625 116.734375 207.058594 C 116.566406 218.980469 122.492188 224.585938 120.292969 236.226562 C 118.09375 247.867188 106.320312 254.984375 107.144531 265.675781 C 107.96875 276.367188 120.984375 285.394531 119.609375 294.597656 C 118.234375 303.800781 110.152344 308.429688 113.71875 324.179688 C 117.285156 339.929688 130.980469 342.9375 131.109375 351.980469 C 131.242188 361.027344 127 373.890625 131.933594 381.289062 C 136.871094 388.6875 147.546875 388.957031 150.832031 399.921875 C 154.121094 410.886719 149.078125 417.582031 157.414062 426.480469 C 165.75 435.375 173.851562 430.179688 179.058594 436.996094 C 184.265625 443.816406 181.25 457.269531 190.691406 464.113281 C 200.128906 470.960938 215.234375 466.445312 223.121094 473.5625 C 231.011719 480.679688 235.316406 496.570312 243.949219 499.996094 C 252.585938 503.425781 264.628906 497.253906 275.03125 500.820312 C 285.4375 504.386719 288.460938 515.71875 295.851562 516.019531 C 303.242188 516.316406 314.074219 511.90625 320.394531 513.390625 C 322.523438 513.90625 328.328125 515.019531 335.972656 516.289062 C 350.1875 518.640625 370.839844 521.453125 386.398438 521.722656 L 388.75 521.722656 C 404.308594 521.453125 424.960938 518.640625 439.179688 516.289062 C 446.820312 515.019531 452.625 513.90625 454.753906 513.390625 C 461.039062 511.882812 471.875 516.265625 479.296875 516.019531 C 486.722656 515.773438 489.703125 504.378906 500.117188 500.820312 C 510.53125 497.261719 522.582031 503.449219 531.199219 499.996094 C 539.816406 496.542969 544.085938 480.714844 552.027344 473.5625 C 559.96875 466.410156 575.035156 470.933594 584.460938 464.113281 C 593.882812 457.296875 590.886719 443.851562 596.089844 436.996094 C 601.296875 430.144531 609.390625 435.359375 617.734375 426.480469 C 626.078125 417.601562 621.019531 410.871094 624.316406 399.921875 C 627.613281 388.976562 638.308594 388.632812 643.257812 381.238281 C 648.210938 373.839844 643.941406 360.964844 644.082031 351.929688 C 644.222656 342.890625 657.914062 339.878906 661.472656 324.128906 C 665.035156 308.378906 656.953125 303.722656 655.582031 294.546875 C 654.214844 285.371094 667.234375 276.324219 668.046875 265.632812 C 668.863281 254.941406 657.089844 247.847656 654.898438 236.199219 Z M 654.898438 236.199219 " fill-opacity="1" fill-rule="nonzero"/></g><path fill="#824733" d="M 577.367188 612.226562 C 570.410156 605.839844 557.050781 598.675781 542.664062 592.070312 L 538.816406 590.316406 C 518.445312 581.246094 496.988281 573.503906 489.152344 570.753906 L 486.066406 569.761719 L 485.058594 569.351562 C 425.449219 544.738281 439.054688 476.726562 439.054688 476.726562 C 424.6875 503.878906 393.949219 509.289062 387.609375 510.164062 C 381.273438 509.289062 350.53125 503.871094 336.164062 476.675781 C 336.164062 476.675781 349.742188 544.6875 290.164062 569.296875 L 289.15625 569.710938 L 286.070312 570.78125 C 278.234375 573.53125 256.773438 581.296875 236.402344 590.34375 L 232.554688 592.09375 C 218.171875 598.675781 204.8125 605.835938 197.851562 612.253906 C 178.050781 630.429688 176.113281 707.683594 176.113281 707.683594 C 176.113281 707.683594 195.84375 732.320312 233.492188 756.378906 C 235.304688 757.546875 237.160156 758.714844 239.058594 759.882812 C 240.347656 760.664062 241.6875 761.453125 242.996094 762.234375 C 244.308594 763.003906 245.640625 763.773438 246.992188 764.539062 C 257.578125 770.558594 268.503906 775.878906 279.769531 780.5 C 291.035156 785.117188 302.550781 789 314.316406 792.148438 C 326.078125 795.292969 337.996094 797.675781 350.066406 799.292969 C 362.136719 800.914062 374.257812 801.757812 386.433594 801.824219 L 388.785156 801.824219 C 400.960938 801.757812 413.085938 800.914062 425.15625 799.292969 C 437.222656 797.675781 449.140625 795.292969 460.90625 792.148438 C 472.667969 789 484.183594 785.117188 495.449219 780.5 C 506.71875 775.878906 517.644531 770.558594 528.226562 764.539062 C 529.578125 763.777344 530.910156 763.011719 532.226562 762.234375 C 533.546875 761.453125 534.855469 760.664062 536.160156 759.882812 C 538.054688 758.714844 539.910156 757.546875 541.726562 756.378906 C 579.375 732.320312 599.105469 707.683594 599.105469 707.683594 C 599.105469 707.683594 597.167969 630.40625 577.367188 612.226562 Z M 577.367188 612.226562 " fill-opacity="1" fill-rule="nonzero"/><path fill="#231f20" d="M 246.992188 764.492188 C 245.640625 763.734375 244.308594 762.964844 242.996094 762.1875 C 239.714844 760.261719 236.550781 758.320312 233.492188 756.371094 C 233.582031 755.617188 237.28125 723.203125 233.492188 690.292969 C 233.492188 690.292969 243.414062 700.460938 247.605469 721.441406 C 250.269531 734.765625 248.699219 752.984375 246.992188 764.492188 Z M 246.992188 764.492188 " fill-opacity="1" fill-rule="nonzero"/><path fill="#231f20" d="M 528.226562 764.492188 C 529.578125 763.734375 530.910156 762.964844 532.226562 762.1875 C 535.503906 760.261719 538.671875 758.320312 541.726562 756.371094 C 541.640625 755.617188 537.941406 723.203125 541.726562 690.292969 C 541.726562 690.292969 531.804688 700.460938 527.613281 721.441406 C 524.949219 734.765625 526.519531 752.984375 528.226562 764.492188 Z M 528.226562 764.492188 " fill-opacity="1" fill-rule="nonzero"/><path fill="#000100" d="M 529.515625 665.71875 C 528.953125 684.28125 529.453125 702.820312 531.015625 721.328125 C 531.945312 732.871094 533.285156 745.246094 535.117188 758.472656 C 534.328125 758.953125 533.515625 759.429688 532.707031 759.902344 L 531.410156 760.671875 C 530.535156 761.179688 529.65625 761.691406 528.78125 762.1875 C 527.613281 762.847656 526.457031 763.496094 525.273438 764.132812 C 522.179688 765.828125 519.078125 767.472656 515.9375 769.035156 C 501.511719 776.324219 486.5625 782.316406 471.09375 787.011719 C 455.625 791.707031 439.867188 795.035156 423.820312 796.992188 C 412.144531 798.433594 400.425781 799.160156 388.660156 799.167969 L 387.871094 799.167969 C 382.332031 799.167969 376.835938 799.003906 371.375 798.675781 C 368.519531 798.527344 365.667969 798.316406 362.828125 798.0625 C 347.152344 796.707031 331.695312 794.058594 316.460938 790.113281 C 309.796875 788.359375 303.203125 786.386719 296.675781 784.1875 C 287.628906 781.101562 278.757812 777.574219 270.0625 773.601562 C 267.503906 772.425781 264.953125 771.214844 262.410156 769.945312 C 257.492188 767.527344 252.609375 764.933594 247.78125 762.207031 L 244.675781 760.453125 L 243.800781 759.9375 L 241.375 758.507812 C 242.25 752.300781 242.984375 746.28125 243.644531 740.445312 C 245.886719 720.398438 246.957031 702.574219 247.148438 686.769531 C 247.21875 681.65625 247.21875 676.761719 247.148438 672.089844 C 247.089844 668.941406 246.992188 665.910156 246.867188 662.957031 C 246.613281 656.335938 246.191406 650.164062 245.605469 644.4375 C 245.097656 639.039062 244.515625 634.039062 243.855469 629.441406 C 242.296875 618.046875 239.753906 606.871094 236.226562 595.925781 C 235.929688 595.046875 235.648438 594.242188 235.351562 593.472656 L 236.957031 592.753906 C 242.03125 590.492188 247.175781 588.308594 252.164062 586.277344 C 258.300781 583.777344 264.171875 581.480469 269.386719 579.507812 C 273.851562 577.808594 277.828125 576.355469 281.0625 575.1875 C 283.183594 574.417969 284.992188 573.777344 286.402344 573.277344 L 287.347656 572.945312 C 287.496094 574.152344 287.671875 575.390625 287.890625 576.625 C 290.988281 595.136719 300.523438 616.242188 312.585938 636.960938 C 321.214844 651.570312 330.566406 665.699219 340.636719 679.355469 C 353.089844 696.402344 365.328125 711.363281 374.390625 721.984375 C 376.371094 724.300781 378.195312 726.421875 379.835938 728.304688 C 382.535156 731.398438 384.734375 733.871094 386.3125 735.613281 L 386.65625 735.992188 L 388.265625 737.789062 L 390.230469 735.613281 C 393.402344 732.109375 399.171875 725.589844 406.378906 716.980469 C 408.128906 714.871094 409.996094 712.597656 411.925781 710.285156 C 420.9375 699.269531 431.480469 685.746094 441.851562 671.0625 C 444.234375 667.699219 446.59375 664.269531 448.925781 660.78125 C 455.191406 651.464844 461.242188 641.816406 466.667969 632.140625 C 475.714844 616.023438 483.050781 599.808594 486.828125 584.898438 C 487.851562 580.957031 488.625 576.964844 489.140625 572.925781 L 490.089844 573.261719 C 494.9375 575.011719 504.402344 578.359375 515.507812 582.734375 C 518.042969 583.726562 520.671875 584.785156 523.34375 585.863281 C 528.605469 588.019531 534.109375 590.324219 539.527344 592.734375 L 541.121094 593.453125 C 540.167969 596.136719 539.097656 599.414062 538.019531 603.324219 C 536.695312 608.097656 535.335938 613.839844 534.101562 620.589844 C 532.933594 626.953125 531.875 634.21875 531.042969 642.4375 C 530.753906 645.304688 530.5 648.292969 530.261719 651.40625 C 529.945312 655.933594 529.699219 660.703125 529.515625 665.71875 Z M 529.515625 665.71875 " fill-opacity="1" fill-rule="nonzero"/><path fill="#c6182d" d="M 312.59375 636.960938 L 270.835938 620.835938 L 287.902344 576.625 C 290.996094 595.179688 300.53125 616.214844 312.59375 636.960938 Z M 312.59375 636.960938 " fill-opacity="1" fill-rule="nonzero"/><path fill="#c6182d" d="M 271.832031 696.253906 L 253.328125 744.179688 L 243.644531 740.433594 C 245.886719 720.390625 246.957031 702.5625 247.148438 686.761719 Z M 271.832031 696.253906 " fill-opacity="1" fill-rule="nonzero"/><path fill="#c6182d" d="M 374.375 722.003906 L 365.820312 744.179688 L 317.933594 725.675781 L 336.425781 677.777344 L 340.609375 679.390625 C 353.074219 696.417969 365.308594 711.382812 374.375 722.003906 Z M 374.375 722.003906 " fill-opacity="1" fill-rule="nonzero"/><path fill="#c6182d" d="M 484.699219 781.867188 L 484.398438 782.628906 C 464.746094 789.703125 444.550781 794.5 423.8125 797.019531 L 436.8125 763.363281 Z M 484.699219 781.867188 " fill-opacity="1" fill-rule="nonzero"/><path fill="#c6182d" d="M 531.015625 721.328125 L 500.765625 709.636719 L 519.253906 661.789062 L 529.515625 665.753906 C 528.953125 684.304688 529.453125 702.832031 531.015625 721.328125 Z M 531.015625 721.328125 " fill-opacity="1" fill-rule="nonzero"/><path fill="#c6182d" d="M 503.726562 591.4375 L 485.222656 639.335938 L 466.648438 632.15625 C 475.695312 616.039062 483.03125 599.824219 486.808594 584.917969 Z M 503.726562 591.4375 " fill-opacity="1" fill-rule="nonzero"/><path fill="#03874c" d="M 281.074219 575.1875 L 245.605469 644.4375 C 245.097656 639.039062 244.515625 634.039062 243.855469 629.441406 L 269.414062 579.484375 C 273.859375 577.808594 277.839844 576.355469 281.074219 575.1875 Z M 281.074219 575.1875 " fill-opacity="1" fill-rule="nonzero"/><path fill="#03874c" d="M 246.867188 662.921875 L 300.832031 683.570312 L 270.035156 773.601562 C 267.476562 772.425781 264.925781 771.214844 262.382812 769.945312 L 290.25 688.539062 L 247.148438 672.054688 C 247.089844 668.90625 246.992188 665.875 246.867188 662.921875 Z M 246.867188 662.921875 " fill-opacity="1" fill-rule="nonzero"/><path fill="#03874c" d="M 386.296875 735.632812 L 386.636719 736.007812 L 371.359375 798.675781 C 368.5 798.527344 365.652344 798.316406 362.8125 798.0625 L 379.816406 728.324219 C 382.515625 731.417969 384.71875 733.886719 386.296875 735.632812 Z M 386.296875 735.632812 " fill-opacity="1" fill-rule="nonzero"/><path fill="#03874c" d="M 411.910156 710.304688 L 525.230469 764.136719 C 522.136719 765.828125 519.03125 767.472656 515.894531 769.035156 L 406.359375 717.007812 C 408.121094 714.886719 409.980469 712.625 411.910156 710.304688 Z M 411.910156 710.304688 " fill-opacity="1" fill-rule="nonzero"/><path fill="#03874c" d="M 531.066406 642.457031 C 530.777344 645.324219 530.523438 648.3125 530.289062 651.421875 L 498.601562 636.269531 L 515.535156 582.753906 C 518.070312 583.742188 520.699219 584.804688 523.371094 585.882812 L 508.847656 631.832031 Z M 531.066406 642.457031 " fill-opacity="1" fill-rule="nonzero"/><path fill="#e2b05a" d="M 252.171875 586.277344 L 252.171875 595.917969 L 236.210938 595.917969 C 235.910156 595.039062 235.632812 594.234375 235.332031 593.460938 L 236.9375 592.742188 C 242.039062 590.492188 247.183594 588.308594 252.171875 586.277344 Z M 252.171875 586.277344 " fill-opacity="1" fill-rule="nonzero"/><path fill="#e2b05a" d="M 284 641 L 297.742188 651.105469 L 287.636719 664.847656 L 273.894531 654.742188 Z M 284 641 " fill-opacity="1" fill-rule="nonzero"/><path fill="#e2b05a" d="M 334.9375 764.96875 L 316.441406 790.113281 C 309.78125 788.359375 303.183594 786.386719 296.65625 784.1875 L 281.546875 773.101562 L 304.160156 742.355469 Z M 334.9375 764.96875 " fill-opacity="1" fill-rule="nonzero"/><path fill="#e2b05a" d="M 395.089844 745.808594 L 416.644531 744.753906 L 417.699219 766.308594 L 396.144531 767.359375 Z M 395.089844 745.808594 " fill-opacity="1" fill-rule="nonzero"/><path fill="#e2b05a" d="M 482.359375 698.347656 L 443.261719 700.257812 L 441.835938 671.082031 C 444.21875 667.714844 446.578125 664.289062 448.90625 660.800781 L 480.464844 659.265625 Z M 482.359375 698.347656 " fill-opacity="1" fill-rule="nonzero"/><path fill="#e2b05a" d="M 538.046875 603.339844 C 536.722656 608.117188 535.363281 613.859375 534.128906 620.605469 L 524.765625 621.054688 L 523.890625 604.023438 Z M 538.046875 603.339844 " fill-opacity="1" fill-rule="nonzero"/><path fill="#fdffff" d="M 285.191406 576.503906 C 289.121094 600.9375 304.320312 632.28125 330.476562 669.785156 C 347.09375 693.386719 365.046875 715.921875 384.339844 737.394531 L 388.25 741.777344 L 392.167969 737.394531 C 411.453125 715.921875 429.40625 693.382812 446.023438 669.785156 C 472.1875 632.273438 487.398438 600.921875 491.308594 576.503906 C 500.449219 579.746094 519.488281 586.738281 537.871094 594.910156 C 530.859375 615.847656 519.875 666.148438 532.277344 757.125 L 531.402344 757.65625 L 530.234375 758.339844 C 529.359375 758.839844 528.480469 759.375 527.472656 759.917969 C 516.949219 765.917969 506.078125 771.210938 494.867188 775.796875 C 483.652344 780.382812 472.1875 784.21875 460.472656 787.3125 C 448.757812 790.402344 436.894531 792.71875 424.878906 794.265625 C 412.859375 795.8125 400.792969 796.570312 388.679688 796.546875 L 387.890625 796.546875 C 375.773438 796.574219 363.703125 795.8125 351.683594 794.265625 C 339.667969 792.722656 327.800781 790.402344 316.082031 787.308594 C 304.367188 784.21875 292.898438 780.378906 281.683594 775.792969 C 270.46875 771.207031 259.59375 765.914062 249.070312 759.910156 L 246.878906 758.664062 L 245.125 757.65625 L 244.25 757.125 C 256.644531 666.148438 245.703125 615.847656 238.65625 594.910156 C 257.0625 586.757812 276.066406 579.761719 285.210938 576.503906 M 486.898438 569.308594 L 486.792969 570.402344 C 481.535156 627.660156 404.71875 715.632812 388.265625 733.871094 C 371.832031 715.632812 295 627.660156 289.734375 570.402344 L 289.628906 569.308594 L 288.628906 569.71875 L 285.535156 570.789062 C 277.707031 573.539062 256.238281 581.304688 235.875 590.351562 L 232.027344 592.105469 C 238.761719 609.546875 252.585938 660.300781 238.53125 759.839844 C 239.8125 760.621094 241.164062 761.410156 242.460938 762.1875 C 243.785156 762.960938 245.089844 763.730469 246.457031 764.492188 C 257.183594 770.59375 268.261719 775.976562 279.6875 780.640625 C 291.113281 785.304688 302.792969 789.210938 314.726562 792.359375 C 326.65625 795.507812 338.746094 797.875 350.984375 799.453125 C 363.222656 801.035156 375.515625 801.820312 387.855469 801.804688 L 388.652344 801.804688 C 400.992188 801.820312 413.285156 801.035156 425.523438 799.453125 C 437.761719 797.875 449.847656 795.507812 461.777344 792.359375 C 473.710938 789.210938 485.390625 785.304688 496.816406 780.640625 C 508.238281 775.976562 519.316406 770.59375 530.042969 764.492188 C 531.390625 763.734375 532.726562 762.964844 534.039062 762.1875 C 535.371094 761.410156 536.667969 760.621094 537.976562 759.839844 C 523.949219 660.300781 537.738281 609.546875 544.480469 592.105469 L 540.632812 590.351562 C 520.261719 581.28125 498.800781 573.539062 490.964844 570.789062 L 487.878906 569.761719 L 486.878906 569.351562 Z M 486.898438 569.308594 " fill-opacity="1" fill-rule="nonzero"/><path fill="#824733" d="M 512.285156 343.804688 C 510.53125 336.667969 507.347656 334.074219 503.964844 333.644531 C 503.703125 333.609375 503.441406 333.621094 503.183594 333.679688 C 502.925781 333.738281 502.6875 333.84375 502.46875 333.992188 C 502.25 334.140625 502.0625 334.320312 501.914062 334.539062 C 501.761719 334.753906 501.652344 334.992188 501.589844 335.25 C 499.835938 342.261719 492.699219 370.140625 487.011719 377.476562 C 487.011719 377.476562 515.386719 273.632812 389.46875 232.40625 L 387.617188 231.808594 L 385.75 232.40625 C 259.832031 273.597656 288.207031 377.476562 288.207031 377.476562 C 282.519531 370.140625 275.375 342.277344 273.640625 335.25 C 273.574219 334.992188 273.464844 334.753906 273.3125 334.539062 C 273.160156 334.324219 272.972656 334.140625 272.753906 333.992188 C 272.535156 333.84375 272.292969 333.742188 272.035156 333.679688 C 271.777344 333.621094 271.515625 333.609375 271.253906 333.644531 C 267.871094 334.074219 264.644531 336.667969 262.9375 343.804688 C 258.308594 363.164062 274.523438 378.746094 279.363281 393.269531 C 284.203125 407.792969 294.730469 396.425781 294.730469 396.425781 C 320.914062 468.453125 369.929688 484.019531 385.417969 487.210938 C 386.25 487.375 386.980469 487.507812 387.617188 487.613281 C 388.242188 487.507812 388.976562 487.375 389.800781 487.210938 C 405.289062 484.019531 454.308594 468.453125 480.492188 396.425781 C 480.492188 396.425781 491.007812 407.820312 495.855469 393.269531 C 500.703125 378.722656 516.910156 363.164062 512.285156 343.804688 Z M 512.285156 343.804688 " fill-opacity="1" fill-rule="nonzero"/><path fill="#e2b05a" d="M 405.175781 648.617188 C 405.175781 649.191406 405.148438 649.765625 405.089844 650.339844 C 405.035156 650.910156 404.949219 651.480469 404.839844 652.042969 C 404.726562 652.609375 404.585938 653.164062 404.417969 653.714844 C 404.253906 654.265625 404.058594 654.808594 403.839844 655.339844 C 403.617188 655.871094 403.375 656.390625 403.101562 656.898438 C 402.832031 657.40625 402.535156 657.898438 402.214844 658.375 C 401.894531 658.855469 401.554688 659.316406 401.1875 659.761719 C 400.824219 660.203125 400.4375 660.628906 400.03125 661.039062 C 399.625 661.445312 399.199219 661.832031 398.753906 662.195312 C 398.308594 662.558594 397.847656 662.902344 397.371094 663.222656 C 396.890625 663.542969 396.398438 663.835938 395.890625 664.109375 C 395.382812 664.378906 394.863281 664.625 394.332031 664.84375 C 393.800781 665.066406 393.257812 665.257812 392.710938 665.425781 C 392.160156 665.59375 391.601562 665.730469 391.035156 665.84375 C 390.472656 665.957031 389.902344 666.039062 389.332031 666.097656 C 388.757812 666.152344 388.183594 666.183594 387.609375 666.183594 C 387.035156 666.183594 386.460938 666.152344 385.886719 666.097656 C 385.316406 666.039062 384.746094 665.957031 384.183594 665.84375 C 383.617188 665.730469 383.0625 665.59375 382.511719 665.425781 C 381.960938 665.257812 381.417969 665.066406 380.886719 664.84375 C 380.355469 664.625 379.835938 664.378906 379.328125 664.109375 C 378.820312 663.835938 378.328125 663.542969 377.851562 663.222656 C 377.371094 662.902344 376.910156 662.558594 376.464844 662.195312 C 376.019531 661.832031 375.59375 661.445312 375.1875 661.039062 C 374.78125 660.628906 374.394531 660.203125 374.03125 659.761719 C 373.664062 659.316406 373.324219 658.855469 373.003906 658.375 C 372.683594 657.898438 372.390625 657.40625 372.117188 656.898438 C 371.847656 656.390625 371.601562 655.871094 371.378906 655.339844 C 371.160156 654.808594 370.96875 654.265625 370.800781 653.714844 C 370.632812 653.164062 370.492188 652.609375 370.382812 652.042969 C 370.269531 651.480469 370.183594 650.910156 370.128906 650.339844 C 370.070312 649.765625 370.042969 649.191406 370.042969 648.617188 C 370.042969 648.042969 370.070312 647.46875 370.128906 646.894531 C 370.183594 646.324219 370.269531 645.753906 370.382812 645.191406 C 370.492188 644.625 370.632812 644.070312 370.800781 643.519531 C 370.96875 642.96875 371.160156 642.425781 371.378906 641.894531 C 371.601562 641.363281 371.847656 640.84375 372.117188 640.339844 C 372.390625 639.832031 372.683594 639.335938 373.003906 638.859375 C 373.324219 638.382812 373.664062 637.917969 374.03125 637.476562 C 374.394531 637.03125 374.78125 636.605469 375.1875 636.199219 C 375.59375 635.792969 376.019531 635.40625 376.464844 635.039062 C 376.910156 634.675781 377.371094 634.332031 377.851562 634.011719 C 378.328125 633.695312 378.820312 633.398438 379.328125 633.128906 C 379.835938 632.855469 380.355469 632.609375 380.886719 632.390625 C 381.417969 632.171875 381.960938 631.976562 382.511719 631.808594 C 383.0625 631.644531 383.617188 631.503906 384.183594 631.390625 C 384.746094 631.277344 385.316406 631.195312 385.886719 631.136719 C 386.460938 631.082031 387.035156 631.054688 387.609375 631.054688 C 388.183594 631.054688 388.757812 631.082031 389.332031 631.136719 C 389.902344 631.195312 390.472656 631.277344 391.035156 631.390625 C 391.601562 631.503906 392.160156 631.644531 392.710938 631.808594 C 393.257812 631.976562 393.800781 632.171875 394.332031 632.390625 C 394.863281 632.609375 395.382812 632.855469 395.890625 633.128906 C 396.398438 633.398438 396.890625 633.695312 397.371094 634.011719 C 397.847656 634.332031 398.308594 634.675781 398.753906 635.039062 C 399.199219 635.40625 399.625 635.792969 400.03125 636.199219 C 400.4375 636.605469 400.824219 637.03125 401.1875 637.476562 C 401.554688 637.917969 401.894531 638.382812 402.214844 638.859375 C 402.535156 639.335938 402.832031 639.832031 403.101562 640.339844 C 403.375 640.84375 403.617188 641.363281 403.839844 641.894531 C 404.058594 642.425781 404.253906 642.96875 404.417969 643.519531 C 404.585938 644.070312 404.726562 644.625 404.839844 645.191406 C 404.949219 645.753906 405.035156 646.324219 405.089844 646.894531 C 405.148438 647.46875 405.175781 648.042969 405.175781 648.617188 Z M 405.175781 648.617188 " fill-opacity="1" fill-rule="nonzero"/><path fill="#231f20" d="M 397.734375 685.746094 C 396.683594 686.371094 395.742188 687.132812 394.902344 688.023438 C 394.066406 688.875 393.324219 689.796875 392.667969 690.792969 C 391.300781 692.738281 390.730469 695.078125 390.039062 697.277344 C 389.320312 699.492188 388.734375 701.742188 388.285156 704.027344 C 388.058594 705.273438 387.847656 706.523438 387.679688 707.777344 C 387.511719 706.523438 387.304688 705.273438 387.074219 704.027344 C 386.625 701.742188 386.039062 699.492188 385.320312 697.277344 C 384.59375 695.078125 384.023438 692.738281 382.691406 690.792969 C 382.039062 689.796875 381.292969 688.875 380.457031 688.023438 C 379.621094 687.132812 378.675781 686.371094 377.625 685.746094 L 377.335938 685.964844 C 377.558594 687.128906 377.875 688.269531 378.285156 689.382812 C 378.652344 690.460938 379.0625 691.511719 379.484375 692.527344 C 380.300781 694.578125 381.675781 696.367188 382.65625 698.382812 C 383.640625 700.398438 384.542969 702.441406 385.390625 704.519531 C 386.15625 706.367188 386.828125 708.253906 387.46875 710.152344 C 387.566406 710.417969 387.652344 710.671875 387.742188 710.925781 L 388.011719 710.144531 C 388.671875 708.234375 389.328125 706.351562 390.089844 704.519531 C 390.945312 702.414062 391.855469 700.371094 392.824219 698.382812 C 393.824219 696.367188 395.183594 694.578125 396 692.527344 C 396.417969 691.511719 396.832031 690.460938 397.199219 689.382812 C 397.609375 688.269531 397.921875 687.128906 398.144531 685.964844 Z M 397.734375 685.746094 " fill-opacity="1" fill-rule="nonzero"/><path fill="#000100" d="M 369.289062 320.847656 C 369.289062 320.847656 376.179688 303.207031 330.808594 299.175781 C 312.3125 297.527344 302.425781 304.730469 297.191406 313.847656 C 297.054688 314.09375 297.085938 314.316406 297.285156 314.515625 C 297.484375 314.714844 297.707031 314.746094 297.957031 314.609375 C 302.988281 311.644531 318.117188 304.25 334 311.101562 C 353.492188 319.464844 367.273438 327.195312 369.289062 320.847656 Z M 369.289062 320.847656 " fill-opacity="1" fill-rule="nonzero"/><path fill="#fdffff" d="M 363.382812 349.472656 C 335.917969 363.601562 314.292969 349.902344 303.398438 339.832031 C 300.527344 337.21875 297.917969 334.371094 295.5625 331.289062 C 317.082031 335.554688 309.464844 328.9375 330.816406 328.359375 C 355.292969 328.105469 363.144531 348.871094 363.382812 349.527344 Z M 363.382812 349.472656 " fill-opacity="1" fill-rule="nonzero"/><path fill="#000100" d="M 363.371094 349.464844 C 350.222656 338.507812 327.214844 331.148438 314.222656 338.507812 C 309.789062 341.035156 306.203125 340.980469 303.398438 339.808594 C 298.226562 337.660156 295.746094 331.707031 295.5625 331.261719 C 317.082031 335.53125 309.464844 328.914062 330.816406 328.335938 C 355.28125 328.042969 363.136719 348.808594 363.371094 349.464844 Z M 363.371094 349.464844 " fill-opacity="1" fill-rule="nonzero"/><path fill="#000100" d="M 347.777344 340.5625 C 347.777344 341.367188 347.699219 342.164062 347.542969 342.953125 C 347.386719 343.746094 347.152344 344.511719 346.84375 345.257812 C 346.535156 346 346.160156 346.707031 345.710938 347.378906 C 345.261719 348.046875 344.753906 348.667969 344.183594 349.238281 C 343.613281 349.808594 342.996094 350.316406 342.324219 350.761719 C 341.65625 351.210938 340.949219 351.589844 340.203125 351.898438 C 339.457031 352.207031 338.691406 352.4375 337.902344 352.59375 C 337.109375 352.753906 336.3125 352.832031 335.507812 352.832031 C 334.703125 352.832031 333.902344 352.753906 333.113281 352.59375 C 332.324219 352.4375 331.554688 352.207031 330.8125 351.898438 C 330.066406 351.589844 329.359375 351.210938 328.6875 350.761719 C 328.019531 350.316406 327.398438 349.808594 326.828125 349.238281 C 326.261719 348.667969 325.75 348.046875 325.304688 347.378906 C 324.855469 346.707031 324.476562 346 324.167969 345.257812 C 323.859375 344.511719 323.628906 343.746094 323.472656 342.953125 C 323.3125 342.164062 323.234375 341.367188 323.234375 340.5625 C 323.238281 338.851562 323.578125 337.210938 324.261719 335.644531 C 331.578125 335.066406 339.984375 336.898438 347.761719 340.15625 C 347.777344 340.296875 347.777344 340.421875 347.777344 340.5625 Z M 347.777344 340.5625 " fill-opacity="1" fill-rule="nonzero"/><path fill="#000100" d="M 384.445312 401.78125 C 384.640625 401.769531 384.757812 401.667969 384.789062 401.472656 C 384.820312 401.277344 384.742188 401.144531 384.558594 401.070312 C 382.734375 400.28125 379.476562 398.625 377.414062 396.09375 C 374.425781 392.421875 368 397.582031 371.902344 399.652344 C 375.382812 401.484375 380.316406 402.148438 384.445312 401.78125 Z M 384.445312 401.78125 " fill-opacity="1" fill-rule="nonzero"/><path fill="#000100" d="M 368 400.605469 C 367.574219 400.433594 367.167969 400.226562 366.78125 399.984375 C 366.394531 399.742188 366.027344 399.464844 365.691406 399.15625 C 365.351562 398.847656 365.042969 398.511719 364.761719 398.148438 C 364.484375 397.78125 364.238281 397.398438 364.027344 396.992188 C 363.820312 396.582031 363.644531 396.160156 363.511719 395.722656 C 363.375 395.285156 363.28125 394.835938 363.226562 394.382812 C 363.171875 393.925781 363.15625 393.472656 363.183594 393.011719 C 363.207031 392.554688 363.273438 392.105469 363.382812 391.65625 " fill-opacity="1" fill-rule="nonzero"/><path fill="#000100" d="M 387.609375 455.429688 C 360.867188 455.132812 349.847656 430.511719 349.847656 430.511719 C 357.902344 430.511719 365.957031 415.917969 375.847656 415.917969 C 383.234375 415.917969 386.433594 418.390625 387.566406 419.632812 Z M 387.609375 455.429688 " fill-opacity="1" fill-rule="nonzero"/><path fill="#000100" d="M 405.929688 320.847656 C 405.929688 320.847656 399.039062 303.207031 444.410156 299.175781 C 462.90625 297.527344 472.792969 304.730469 478.027344 313.847656 C 478.164062 314.09375 478.132812 314.316406 477.933594 314.515625 C 477.734375 314.714844 477.511719 314.746094 477.265625 314.609375 C 472.234375 311.644531 457.105469 304.25 441.21875 311.101562 C 421.726562 319.464844 407.945312 327.195312 405.929688 320.847656 Z M 405.929688 320.847656 " fill-opacity="1" fill-rule="nonzero"/><path fill="#fdffff" d="M 411.839844 349.472656 C 439.300781 363.601562 460.925781 349.902344 471.820312 339.832031 C 474.691406 337.21875 477.304688 334.371094 479.65625 331.289062 C 458.136719 335.554688 465.753906 328.9375 444.402344 328.359375 C 419.929688 328.105469 412.074219 348.871094 411.839844 349.527344 Z M 411.839844 349.472656 " fill-opacity="1" fill-rule="nonzero"/><path fill="#000100" d="M 411.847656 349.464844 C 424.996094 338.507812 448.003906 331.148438 460.996094 338.507812 C 465.429688 341.035156 469.015625 340.980469 471.820312 339.808594 C 476.992188 337.660156 479.472656 331.707031 479.65625 331.261719 C 458.136719 335.53125 465.753906 328.914062 444.402344 328.335938 C 419.9375 328.042969 412.082031 348.808594 411.847656 349.464844 Z M 411.847656 349.464844 " fill-opacity="1" fill-rule="nonzero"/><path fill="#000100" d="M 427.441406 340.5625 C 427.441406 341.367188 427.519531 342.164062 427.675781 342.953125 C 427.832031 343.746094 428.066406 344.511719 428.375 345.257812 C 428.683594 346 429.0625 346.707031 429.507812 347.378906 C 429.957031 348.046875 430.464844 348.667969 431.035156 349.238281 C 431.605469 349.808594 432.226562 350.316406 432.894531 350.761719 C 433.566406 351.210938 434.273438 351.589844 435.015625 351.898438 C 435.761719 352.207031 436.527344 352.4375 437.320312 352.59375 C 438.109375 352.753906 438.90625 352.832031 439.710938 352.832031 C 440.519531 352.832031 441.316406 352.753906 442.105469 352.59375 C 442.898438 352.4375 443.664062 352.207031 444.410156 351.898438 C 445.152344 351.589844 445.859375 351.210938 446.53125 350.761719 C 447.199219 350.316406 447.820312 349.808594 448.390625 349.238281 C 448.960938 348.667969 449.46875 348.046875 449.917969 347.378906 C 450.363281 346.707031 450.742188 346 451.050781 345.257812 C 451.359375 344.511719 451.589844 343.746094 451.75 342.953125 C 451.90625 342.164062 451.984375 341.367188 451.984375 340.5625 C 451.980469 338.851562 451.640625 337.210938 450.960938 335.644531 C 443.640625 335.066406 435.234375 336.898438 427.457031 340.15625 C 427.441406 340.296875 427.441406 340.421875 427.441406 340.5625 Z M 427.441406 340.5625 " fill-opacity="1" fill-rule="nonzero"/><path fill="#000100" d="M 390.773438 401.78125 C 390.578125 401.769531 390.464844 401.667969 390.433594 401.472656 C 390.402344 401.277344 390.476562 401.144531 390.660156 401.070312 C 392.484375 400.28125 395.746094 398.625 397.804688 396.09375 C 400.792969 392.421875 407.21875 397.582031 403.316406 399.652344 C 399.882812 401.484375 394.902344 402.148438 390.773438 401.78125 Z M 390.773438 401.78125 " fill-opacity="1" fill-rule="nonzero"/><path fill="#000100" d="M 407.21875 400.605469 C 407.644531 400.433594 408.050781 400.226562 408.4375 399.984375 C 408.828125 399.742188 409.191406 399.464844 409.53125 399.15625 C 409.867188 398.847656 410.175781 398.511719 410.457031 398.148438 C 410.734375 397.78125 410.980469 397.398438 411.191406 396.992188 C 411.402344 396.582031 411.574219 396.160156 411.707031 395.722656 C 411.84375 395.285156 411.9375 394.835938 411.992188 394.382812 C 412.050781 393.925781 412.0625 393.472656 412.039062 393.011719 C 412.011719 392.554688 411.945312 392.105469 411.839844 391.65625 " fill-opacity="1" fill-rule="nonzero"/><path fill="#000100" d="M 425.300781 430.511719 C 425.300781 430.511719 414.320312 455.132812 387.609375 455.429688 L 387.609375 419.632812 C 388.75 418.390625 391.949219 415.917969 399.347656 415.917969 C 409.226562 415.917969 417.28125 430.511719 425.300781 430.511719 Z M 425.300781 430.511719 " fill-opacity="1" fill-rule="nonzero"/><path fill="#e2b05a" d="M 326.671875 189.019531 C 321.902344 191.363281 317.332031 194.039062 312.953125 197.050781 L 330.632812 214.4375 L 273.65625 254.816406 C 272.433594 259.625 271.492188 264.492188 270.835938 269.410156 L 352.257812 212.167969 Z M 326.671875 189.019531 " fill-opacity="1" fill-rule="nonzero"/><path fill="#c6182d" d="M 293.667969 261.074219 L 276.53125 273.125 L 289.433594 298.167969 C 292.257812 292.304688 295.472656 286.667969 299.078125 281.25 Z M 293.667969 261.074219 " fill-opacity="1" fill-rule="nonzero"/><path fill="#e2b05a" d="M 271.308594 276.796875 L 269.941406 277.761719 C 269.15625 288.472656 269.378906 299.164062 270.613281 309.832031 L 284.535156 302.496094 Z M 271.308594 276.796875 " fill-opacity="1" fill-rule="nonzero"/><path fill="#c6182d" d="M 370.28125 228.417969 L 356.929688 216.671875 L 356.105469 217.136719 L 323.671875 239.925781 L 336.03125 244.308594 C 346.703125 237.402344 358.117188 232.105469 370.28125 228.417969 Z M 370.28125 228.417969 " fill-opacity="1" fill-rule="nonzero"/><path fill="#03874c" d="M 317.386719 244.394531 L 299.183594 257.199219 L 303.800781 274.546875 C 311.199219 264.71875 319.832031 256.128906 329.695312 248.777344 Z M 317.386719 244.394531 " fill-opacity="1" fill-rule="nonzero"/><path fill="#03874c" d="M 271.492188 316.511719 C 272.257812 321.898438 273.339844 327.222656 274.734375 332.480469 C 274.734375 332.480469 276.804688 335.292969 278.242188 331.523438 C 279.59375 324.039062 281.660156 316.753906 284.449219 309.675781 Z M 271.492188 316.511719 " fill-opacity="1" fill-rule="nonzero"/><path fill="#c6182d" d="M 320.773438 213.648438 L 307.84375 200.84375 C 291.960938 213.371094 282.308594 228.945312 276.671875 244.957031 Z M 320.773438 213.648438 " fill-opacity="1" fill-rule="nonzero"/><path fill="#e2b05a" d="M 448.546875 189.019531 C 453.316406 191.363281 457.890625 194.039062 462.265625 197.050781 L 444.628906 214.4375 L 501.605469 254.816406 C 502.832031 259.625 503.769531 264.492188 504.429688 269.410156 L 422.960938 212.167969 Z M 448.546875 189.019531 " fill-opacity="1" fill-rule="nonzero"/><path fill="#c6182d" d="M 481.550781 261.074219 L 498.6875 273.125 L 485.785156 298.167969 C 482.960938 292.304688 479.746094 286.667969 476.144531 281.25 Z M 481.550781 261.074219 " fill-opacity="1" fill-rule="nonzero"/><path fill="#e2b05a" d="M 503.914062 276.796875 L 505.28125 277.761719 C 506.0625 288.472656 505.839844 299.164062 504.605469 309.832031 L 490.683594 302.496094 Z M 503.914062 276.796875 " fill-opacity="1" fill-rule="nonzero"/><path fill="#c6182d" d="M 404.941406 228.417969 L 418.289062 216.671875 L 419.113281 217.136719 L 451.546875 239.925781 L 439.1875 244.308594 C 428.519531 237.402344 417.101562 232.105469 404.941406 228.417969 Z M 404.941406 228.417969 " fill-opacity="1" fill-rule="nonzero"/><path fill="#03874c" d="M 457.832031 244.394531 L 476.039062 257.199219 L 471.417969 274.546875 C 464.019531 264.71875 455.390625 256.128906 445.523438 248.777344 Z M 457.832031 244.394531 " fill-opacity="1" fill-rule="nonzero"/><path fill="#03874c" d="M 503.726562 316.511719 C 502.960938 321.898438 501.882812 327.222656 500.484375 332.480469 C 500.484375 332.480469 498.417969 335.292969 496.980469 331.523438 C 495.628906 324.039062 493.558594 316.753906 490.773438 309.675781 Z M 503.726562 316.511719 " fill-opacity="1" fill-rule="nonzero"/><path fill="#c6182d" d="M 454.449219 213.648438 L 467.421875 200.84375 C 483.304688 213.371094 492.957031 228.945312 498.589844 244.957031 Z M 454.449219 213.648438 " fill-opacity="1" fill-rule="nonzero"/><path fill="#c6182d" d="M 388.871094 174.113281 L 388.144531 174.058594 L 387.410156 174.113281 C 375.113281 175.023438 363.019531 177.109375 351.128906 180.371094 L 387.355469 210.308594 L 388.144531 210.949219 L 388.925781 210.308594 L 425.160156 180.371094 C 413.269531 177.109375 401.171875 175.023438 388.871094 174.113281 Z M 388.871094 174.113281 " fill-opacity="1" fill-rule="nonzero"/><path fill="#03874c" d="M 431.664062 182.597656 L 388.144531 218.585938 L 344.660156 182.597656 C 341.390625 183.710938 338.269531 184.882812 335.277344 186.164062 L 379.222656 225.859375 L 383.316406 225.535156 C 384.910156 225.15625 386.53125 224.808594 388.179688 224.464844 C 389.828125 224.796875 391.457031 225.15625 393.0625 225.535156 L 397.148438 225.859375 L 441.082031 186.164062 C 438.054688 184.882812 434.945312 183.710938 431.664062 182.597656 Z M 431.664062 182.597656 " fill-opacity="1" fill-rule="nonzero"/><path fill="#e2b05a" d="M 388.144531 631.457031 L 387.074219 631.457031 C 360.925781 631.105469 338.453125 617.636719 322.042969 592.453125 C 314.402344 580.640625 308.753906 567.945312 305.089844 554.363281 C 304.992188 553.945312 304.933594 553.519531 304.914062 553.085938 C 304.898438 552.65625 304.925781 552.226562 304.992188 551.800781 C 305.0625 551.375 305.171875 550.960938 305.320312 550.558594 C 305.46875 550.152344 305.65625 549.765625 305.882812 549.398438 C 306.109375 549.03125 306.367188 548.6875 306.660156 548.371094 C 306.953125 548.054688 307.277344 547.769531 307.625 547.519531 C 307.972656 547.265625 308.34375 547.046875 308.738281 546.867188 C 309.128906 546.6875 309.535156 546.546875 309.953125 546.445312 C 310.371094 546.34375 310.796875 546.285156 311.230469 546.269531 C 311.660156 546.253906 312.089844 546.277344 312.515625 546.34375 C 312.941406 546.414062 313.355469 546.519531 313.761719 546.671875 C 314.164062 546.820312 314.550781 547.007812 314.917969 547.230469 C 315.289062 547.457031 315.628906 547.714844 315.945312 548.007812 C 316.265625 548.300781 316.550781 548.621094 316.804688 548.96875 C 317.058594 549.320312 317.273438 549.6875 317.457031 550.078125 C 317.636719 550.472656 317.777344 550.875 317.878906 551.296875 C 321.25 563.5 326.378906 574.914062 333.261719 585.539062 C 347.417969 607.089844 365.695312 618.109375 387.609375 618.285156 C 409.523438 618.109375 427.808594 607.089844 441.957031 585.539062 C 448.839844 574.898438 453.96875 563.46875 457.339844 551.253906 C 457.449219 550.839844 457.597656 550.441406 457.78125 550.058594 C 457.96875 549.675781 458.1875 549.316406 458.445312 548.976562 C 458.699219 548.636719 458.988281 548.324219 459.304688 548.039062 C 459.621094 547.753906 459.960938 547.503906 460.328125 547.285156 C 460.691406 547.066406 461.074219 546.882812 461.476562 546.742188 C 461.875 546.597656 462.289062 546.492188 462.707031 546.429688 C 463.128906 546.363281 463.550781 546.339844 463.976562 546.359375 C 464.402344 546.378906 464.824219 546.4375 465.238281 546.535156 C 465.648438 546.636719 466.050781 546.773438 466.4375 546.953125 C 466.824219 547.128906 467.191406 547.34375 467.535156 547.589844 C 467.882812 547.839844 468.199219 548.121094 468.492188 548.429688 C 468.785156 548.738281 469.042969 549.074219 469.269531 549.4375 C 469.496094 549.796875 469.683594 550.175781 469.835938 550.574219 C 469.988281 550.972656 470.101562 551.378906 470.175781 551.800781 C 470.246094 552.21875 470.28125 552.640625 470.269531 553.066406 C 470.261719 553.492188 470.210938 553.914062 470.121094 554.328125 C 466.457031 567.910156 460.808594 580.605469 453.167969 592.417969 C 436.757812 617.601562 414.285156 631.070312 388.136719 631.421875 Z M 388.144531 631.457031 " fill-opacity="1" fill-rule="nonzero"/><g clip-path="url(#b78381cb9c)"><g transform="matrix(1, 0, 0, 1, 162, 177)"><g clip-path="url(#f76369d586)"><g clip-path="url(#84fd250670)"><path fill="#000000" d="M 0.40625 0.929688 L 80.4375 0.929688 L 80.4375 122.542969 L 0.40625 122.542969 Z M 0.40625 0.929688 " fill-opacity="1" fill-rule="nonzero"/></g></g></g></g></svg>